<svg width="91" height="113" viewBox="0 0 91 113" fill="none" xmlns="http://www.w3.org/2000/svg">
<g clip-path="url(#clip0_450_82)">
<path fill-rule="evenodd" clip-rule="evenodd" d="M42.6807 11.9737C59.6387 11.9737 73.3854 25.7179 73.3854 42.6725C73.3854 59.6272 59.6387 73.3708 42.6807 73.3708C25.7228 73.3708 11.9765 59.6267 11.9765 42.6725C11.9765 25.7183 25.7228 11.9737 42.6807 11.9737ZM42.6807 0C66.2526 0 85.3615 19.1052 85.3615 42.6725C85.3615 62.3142 72.0874 78.8534 54.0197 83.8196V101.663C54.0197 107.898 48.9173 113 42.6807 113C36.4442 113 31.3418 107.899 31.3418 101.663V83.8196C13.2741 78.8534 0 62.3137 0 42.6725C0 19.1052 19.1089 0 42.6807 0Z" fill="black"/>
<path fill-rule="evenodd" clip-rule="evenodd" d="M42.828 52.1261L35.2329 59.7192C33.1311 57.6177 25.9048 50.3681 18.4499 42.9003C18.4089 38.6907 19.4677 34.5249 21.5314 30.8341L42.8275 52.1261H42.828Z" fill="black"/>
<path fill-rule="evenodd" clip-rule="evenodd" d="M82.3523 10.4811L34.1689 58.6553L41.7639 66.2484L91 17.0213C89.2888 13.797 87.2546 10.7427 84.9245 7.90894L82.3519 10.4811H82.3523Z" fill="black"/>
<path d="M42.0032 44.0841C38.933 43.3114 36.3985 41.5501 34.3995 38.8007C32.4006 36.0513 31.4014 32.9984 31.4014 29.6416V21.5592L42.0037 17.584L52.6059 21.5592V29.6416C52.6059 32.9984 51.6067 36.0513 49.6078 38.8007C47.6088 41.5501 45.0743 43.3114 42.0041 44.0841H42.0032ZM42.0032 41.3014C44.3004 40.5725 46.1998 39.1151 47.7017 36.9288C49.2037 34.7426 49.9547 32.3133 49.9547 29.6411V23.3805L42.0032 20.3991L34.0517 23.3805V29.6411C34.0517 32.3133 34.8027 34.7426 36.3046 36.9288C37.8066 39.1151 39.7059 40.5725 42.0032 41.3014Z" fill="black"/>
<path d="M42.0031 31.502C42.7379 31.502 43.3335 30.9064 43.3335 30.1718C43.3335 29.4372 42.7379 28.8417 42.0031 28.8417C41.2684 28.8417 40.6727 29.4372 40.6727 30.1718C40.6727 30.9064 41.2684 31.502 42.0031 31.502Z" fill="black"/>
<path d="M43.7573 23.5777L43.543 23.5179L41.9884 29.0923L42.2027 29.1521L43.7573 23.5777Z" fill="black"/>
<path d="M42.1684 30.1763L42.0953 29.9662L37.6164 31.5239L37.6895 31.734L42.1684 30.1763Z" fill="black"/>
</g>
<defs>
<clipPath id="clip0_450_82">
<rect width="91" height="113" fill="white"/>
</clipPath>
</defs>
</svg>
