<svg width="73" height="73" viewBox="0 0 73 73" fill="none" xmlns="http://www.w3.org/2000/svg">
<path d="M13.5556 49C12.3028 49 11.2303 48.5496 10.3382 47.6488C9.44606 46.7479 9 45.665 9 44.4V12.2C9 10.935 9.44606 9.85208 10.3382 8.95125C11.2303 8.05042 12.3028 7.6 13.5556 7.6H23.1222C23.6537 6.22 24.4889 5.10833 25.6278 4.265C26.7667 3.42167 28.0574 3 29.5 3C30.9426 3 32.2333 3.42167 33.3722 4.265C34.5111 5.10833 35.3463 6.22 35.8778 7.6H45.4444C46.6972 7.6 47.7697 8.05042 48.6618 8.95125C49.5539 9.85208 50 10.935 50 12.2V44.4C50 45.665 49.5539 46.7479 48.6618 47.6488C47.7697 48.5496 46.6972 49 45.4444 49H13.5556ZM29.5 10.475C29.9935 10.475 30.4016 10.3121 30.7243 9.98625C31.047 9.66042 31.2083 9.24833 31.2083 8.75C31.2083 8.25167 31.047 7.83958 30.7243 7.51375C30.4016 7.18792 29.9935 7.025 29.5 7.025C29.0065 7.025 28.5984 7.18792 28.2757 7.51375C27.953 7.83958 27.7917 8.25167 27.7917 8.75C27.7917 9.24833 27.953 9.66042 28.2757 9.98625C28.5984 10.3121 29.0065 10.475 29.5 10.475ZM13.5556 41.755C15.6056 39.7233 17.9877 38.1229 20.7021 36.9538C23.4164 35.7846 26.3491 35.2 29.5 35.2C32.6509 35.2 35.5836 35.7846 38.2979 36.9538C41.0123 38.1229 43.3944 39.7233 45.4444 41.755V12.2H13.5556V41.755ZM29.5 30.6C31.7019 30.6 33.581 29.8142 35.1375 28.2425C36.694 26.6708 37.4722 24.7733 37.4722 22.55C37.4722 20.3267 36.694 18.4292 35.1375 16.8575C33.581 15.2858 31.7019 14.5 29.5 14.5C27.2981 14.5 25.419 15.2858 23.8625 16.8575C22.306 18.4292 21.5278 20.3267 21.5278 22.55C21.5278 24.7733 22.306 26.6708 23.8625 28.2425C25.419 29.8142 27.2981 30.6 29.5 30.6ZM18.1111 44.4H40.8889V43.825C39.2944 42.4833 37.5292 41.4771 35.5931 40.8063C33.6569 40.1354 31.6259 39.8 29.5 39.8C27.3741 39.8 25.3431 40.1354 23.4069 40.8063C21.4708 41.4771 19.7056 42.4833 18.1111 43.825V44.4ZM29.5 26C28.5509 26 27.7442 25.6646 27.0799 24.9937C26.4155 24.3229 26.0833 23.5083 26.0833 22.55C26.0833 21.5917 26.4155 20.7771 27.0799 20.1063C27.7442 19.4354 28.5509 19.1 29.5 19.1C30.4491 19.1 31.2558 19.4354 31.9201 20.1063C32.5845 20.7771 32.9167 21.5917 32.9167 22.55C32.9167 23.5083 32.5845 24.3229 31.9201 24.9937C31.2558 25.6646 30.4491 26 29.5 26Z" fill="white"/>
</svg>
