<svg width="60" height="60" viewBox="0 0 60 60" fill="none" xmlns="http://www.w3.org/2000/svg">
<path d="M27.5 30C24.75 30 22.3958 29.0208 20.4375 27.0625C18.4792 25.1042 17.5 22.75 17.5 20C17.5 17.25 18.4792 14.8958 20.4375 12.9375C22.3958 10.9792 24.75 10 27.5 10C30.25 10 32.6042 10.9792 34.5625 12.9375C36.5208 14.8958 37.5 17.25 37.5 20C37.5 22.75 36.5208 25.1042 34.5625 27.0625C32.6042 29.0208 30.25 30 27.5 30ZM27.5 25C28.875 25 30.0521 24.5104 31.0312 23.5312C32.0104 22.5521 32.5 21.375 32.5 20C32.5 18.625 32.0104 17.4479 31.0312 16.4688C30.0521 15.4896 28.875 15 27.5 15C26.125 15 24.9479 15.4896 23.9688 16.4688C22.9896 17.4479 22.5 18.625 22.5 20C22.5 21.375 22.9896 22.5521 23.9688 23.5312C24.9479 24.5104 26.125 25 27.5 25ZM55.25 58.75L47.25 50.75C46.375 51.25 45.4375 51.6667 44.4375 52C43.4375 52.3333 42.375 52.5 41.25 52.5C38.125 52.5 35.4688 51.4062 33.2812 49.2188C31.0938 47.0312 30 44.375 30 41.25C30 38.125 31.0938 35.4688 33.2812 33.2812C35.4688 31.0938 38.125 30 41.25 30C44.375 30 47.0312 31.0938 49.2188 33.2812C51.4062 35.4688 52.5 38.125 52.5 41.25C52.5 42.375 52.3333 43.4375 52 44.4375C51.6667 45.4375 51.25 46.375 50.75 47.25L58.75 55.25L55.25 58.75ZM41.25 47.5C43 47.5 44.4792 46.8958 45.6875 45.6875C46.8958 44.4792 47.5 43 47.5 41.25C47.5 39.5 46.8958 38.0208 45.6875 36.8125C44.4792 35.6042 43 35 41.25 35C39.5 35 38.0208 35.6042 36.8125 36.8125C35.6042 38.0208 35 39.5 35 41.25C35 43 35.6042 44.4792 36.8125 45.6875C38.0208 46.8958 39.5 47.5 41.25 47.5ZM7.5 50V43.0625C7.5 41.6458 7.85417 40.3333 8.5625 39.125C9.27083 37.9167 10.25 37 11.5 36.375C13.625 35.2917 16.0208 34.375 18.6875 33.625C21.3542 32.875 24.3125 32.5 27.5625 32.5C27.0625 33.25 26.6354 34.0521 26.2812 34.9062C25.9271 35.7604 25.6458 36.6458 25.4375 37.5625C22.9375 37.7708 20.7083 38.1979 18.75 38.8438C16.7917 39.4896 15.1458 40.1667 13.8125 40.875C13.3958 41.0833 13.0729 41.3854 12.8438 41.7812C12.6146 42.1771 12.5 42.6042 12.5 43.0625V45H25.4375C25.6458 45.9167 25.9271 46.7917 26.2812 47.625C26.6354 48.4583 27.0625 49.25 27.5625 50H7.5Z" fill="#EDEDED"/>
</svg>
